# xmcd
#
# Track frame offsets: 
#        150
#        11074
#        21814
#        33449
#        42606
#        56401
#        67292
#        80453
#        92310
#        103702
#        112085
#        122514
#        132590
#        145593
#        157460
#        168498
#        181066
#        194166
#        201256
#        211763
#        222156
#        233478
#        242165
#        255271
#        263017
#        275134
#        289526
#        301808
#        312161
#        336463
#
# Disc length: 4795 seconds
#
# Revision: 0
# Processed by: cddbd v1.5.2PL0 Copyright (c) Steve Scherf et al.
# Submitted via: ExactAudioCopy v1.1
#
DISCID=be12b91e
DTITLE=Various Artist - Rhumba Blues Gone Mambo - How Latin Music  Changed Rh
DTITLE=ythm and Blues
DYEAR=2017
DGENRE=Blues
TTITLE0=Fay Simmone - Big Joe Mambo
TTITLE1=Rollee McGif - Helena Mambo
TTITLE2=Charlie Fergurson - Hi-Beam Mambo
TTITLE3=J.J. Jones - After Hours Mambo
TTITLE4=Mel Gray - Mambo Jungle 
TTITLE5=Harmonia Harris - Blues King Mambo
TTITLE6=Dolly Waide - Mambo Baby
TTITLE7=Mikey Baker - Guitarambo
TTITLE8=Lawernce Peel  - Filatone's Mambo
TTITLE9=Ballou - Mambo Classic
TTITLE10=Robert Banks  - Mambo Blues
TTITLE11=Sonny Burke - Mamboggie 
TTITLE12=Kid King  - Mambino
TTITLE13=Chris Powell  - Sandman Mambo
TTITLE14=Ester Sutherland - Clock Mambo
TTITLE15=Buddy Johnson - Side's Mambo
TTITLE16=Vin Strong - Mambo's Got The Blues
TTITLE17=Chaz +2 - Mambo Twist
TTITLE18=Paul Williams - Don't Teach Me to Mambo
TTITLE19=Ernie Fields - T-Town Mambo
TTITLE20=Otis Freeman - Mambo Arrbique
TTITLE21=The Celebrities - Mambo Daddy
TTITLE22=Ellie Russel  - St Louis Blues Mambo
TTITLE23=The Five Tinos - Mambo Baby
TTITLE24=Larry Liggett - Junior's Mambo
TTITLE25=Gene Casey - Avalon Mambo
TTITLE26=Carlos Molina - Dragnet Mambo
TTITLE27=Juan Toradez - Lucky Mambo 
TTITLE28=Jimmy Smith - Judo Mambo 
TTITLE29=Joe Holiday - Mambo Holiday
EXTD=
EXTT0=
EXTT1=
EXTT2=
EXTT3=
EXTT4=
EXTT5=
EXTT6=
EXTT7=
EXTT8=
EXTT9=
EXTT10=
EXTT11=
EXTT12=
EXTT13=
EXTT14=
EXTT15=
EXTT16=
EXTT17=
EXTT18=
EXTT19=
EXTT20=
EXTT21=
EXTT22=
EXTT23=
EXTT24=
EXTT25=
EXTT26=
EXTT27=
EXTT28=
EXTT29=
PLAYORDER=
